<svg width="20" height="20" viewBox="0 0 20 20" fill="none" xmlns="http://www.w3.org/2000/svg">
<g clip-path="url(#clip0_11_8)">
<path d="M19.3994 8.74585H17.2241C17.1006 8.74585 16.9824 8.79956 16.8992 8.89355L11.0205 15.6692V0.546875C11.0205 0.428711 10.9238 0.332031 10.8057 0.332031H9.19434C9.07617 0.332031 8.97949 0.428711 8.97949 0.546875V15.6692L3.10083 8.89355C3.02026 8.79956 2.9021 8.74585 2.77588 8.74585H0.600586C0.417969 8.74585 0.318604 8.96338 0.439453 9.10034L9.35278 19.3726C9.43335 19.4655 9.53296 19.5401 9.64486 19.5911C9.75676 19.6422 9.87833 19.6687 10.0013 19.6687C10.1244 19.6687 10.2459 19.6422 10.3578 19.5911C10.4697 19.5401 10.5693 19.4655 10.6499 19.3726L19.5605 9.10034C19.6814 8.96069 19.582 8.74585 19.3994 8.74585Z" fill="black"/>
</g>
<defs>
<clipPath id="clip0_11_8">
<rect width="20" height="20" fill="white"/>
</clipPath>
</defs>
</svg>
